<?xml version="1.0" standalone="no"?>
<!DOCTYPE svg PUBLIC "-//W3C//DTD SVG 20010904//EN"
 "http://www.w3.org/TR/2001/REC-SVG-20010904/DTD/svg10.dtd">
<svg version="1.0" xmlns="http://www.w3.org/2000/svg"
 width="48.000000pt" height="48.000000pt" viewBox="0 0 48.000000 48.000000"
 preserveAspectRatio="xMidYMid meet">

<g transform="translate(0.000000,48.000000) scale(0.100000,-0.100000)"
fill="#000000" stroke="none">
<path d="M310 263 l0 -156 -23 21 c-26 25 -47 29 -47 9 0 -15 71 -87 86 -87
14 0 84 73 84 88 0 19 -21 14 -47 -10 l-23 -21 0 156 c0 133 -2 157 -15 157
-13 0 -15 -24 -15 -157z"/>
<path d="M118 393 c-22 -5 -24 -33 -3 -33 11 0 15 -12 15 -50 0 -38 4 -50 15
-50 12 0 15 14 15 70 0 72 -1 74 -42 63z"/>
<path d="M106 194 c-19 -18 -21 -44 -5 -44 7 0 17 7 24 17 7 9 17 13 23 9 20
-12 14 -26 -15 -37 -31 -12 -43 -26 -43 -51 0 -15 9 -18 50 -18 38 0 50 4 50
15 0 10 -11 15 -32 16 -32 0 -32 1 -8 10 28 11 40 26 40 51 0 22 -27 48 -50
48 -10 0 -26 -7 -34 -16z"/>
</g>
</svg>
