<?xml version="1.0" standalone="no"?>
<!DOCTYPE svg PUBLIC "-//W3C//DTD SVG 20010904//EN"
 "http://www.w3.org/TR/2001/REC-SVG-20010904/DTD/svg10.dtd">
<svg version="1.0" xmlns="http://www.w3.org/2000/svg"
 width="48.000000pt" height="48.000000pt" viewBox="0 0 48.000000 48.000000"
 preserveAspectRatio="xMidYMid meet">

<g transform="translate(0.000000,48.000000) scale(0.100000,-0.100000)"
fill="#000000" stroke="none">
<path d="M125 400 c-26 -27 -30 -28 -45 -15 -21 19 -40 19 -40 2 0 -15 41 -57
56 -57 14 0 84 73 84 88 0 21 -25 13 -55 -18z"/>
<path d="M200 375 c0 -12 20 -15 120 -15 100 0 120 3 120 15 0 13 -20 15 -120
15 -100 0 -120 -2 -120 -15z"/>
<path d="M125 260 c-26 -27 -30 -28 -45 -15 -18 16 -40 20 -40 7 0 -12 44 -52
56 -52 11 0 84 72 84 83 0 17 -28 5 -55 -23z"/>
<path d="M200 241 c0 -5 7 -12 16 -15 20 -8 188 -8 208 0 41 16 6 24 -104 24
-66 0 -120 -4 -120 -9z"/>
<path d="M125 130 c-26 -27 -30 -28 -45 -15 -21 19 -40 19 -40 2 0 -15 41 -57
56 -57 14 0 84 73 84 88 0 21 -25 13 -55 -18z"/>
<path d="M200 105 c0 -12 20 -15 120 -15 100 0 120 3 120 15 0 13 -20 15 -120
15 -100 0 -120 -2 -120 -15z"/>
</g>
</svg>
