<?xml version="1.0" standalone="no"?>
<!DOCTYPE svg PUBLIC "-//W3C//DTD SVG 20010904//EN"
 "http://www.w3.org/TR/2001/REC-SVG-20010904/DTD/svg10.dtd">
<svg version="1.0" xmlns="http://www.w3.org/2000/svg"
 width="48.000000pt" height="48.000000pt" viewBox="0 0 48.000000 48.000000"
 preserveAspectRatio="xMidYMid meet">

<g transform="translate(0.000000,48.000000) scale(0.100000,-0.100000)"
fill="#000000" stroke="none">
<path d="M173 430 c-10 -11 -29 -20 -43 -20 -46 0 -50 -13 -50 -182 0 -145 1
-158 19 -168 11 -5 76 -10 145 -10 100 0 128 3 140 16 13 13 16 42 16 160 0
81 -5 154 -10 165 -7 12 -21 19 -38 19 -15 0 -35 9 -45 20 -13 15 -29 20 -67
20 -38 0 -54 -5 -67 -20z m117 -25 c0 -11 -12 -15 -50 -15 -38 0 -50 4 -50 15
0 11 12 15 50 15 38 0 50 -4 50 -15z m-50 -37 c30 0 72 3 93 7 l37 7 0 -151 0
-151 -130 0 -130 0 0 151 0 151 38 -7 c20 -4 62 -7 92 -7z"/>
<path d="M179 291 c-20 -20 -29 -39 -29 -61 0 -43 47 -90 90 -90 43 0 90 47
90 90 0 43 -47 90 -90 90 -22 0 -41 -9 -61 -29z m121 -28 c0 -12 -63 -73 -75
-73 -16 0 -50 38 -42 47 4 3 15 -1 25 -10 17 -16 20 -15 47 13 28 29 45 38 45
23z"/>
</g>
</svg>
