<?xml version="1.0" standalone="no"?>
<!DOCTYPE svg PUBLIC "-//W3C//DTD SVG 20010904//EN"
 "http://www.w3.org/TR/2001/REC-SVG-20010904/DTD/svg10.dtd">
<svg version="1.0" xmlns="http://www.w3.org/2000/svg"
 width="48.000000pt" height="48.000000pt" viewBox="0 0 48.000000 48.000000"
 preserveAspectRatio="xMidYMid meet">

<g transform="translate(0.000000,48.000000) scale(0.100000,-0.100000)"
fill="#000000" stroke="none">
<path d="M208 303 c-112 -114 -128 -134 -142 -182 -9 -30 -13 -58 -8 -63 4 -4
32 -1 62 7 49 13 66 26 182 142 138 138 149 159 105 201 -44 42 -63 31 -199
-105z m180 85 c17 -17 15 -43 -4 -58 -13 -11 -19 -9 -41 13 -22 22 -24 28 -13
41 15 19 41 21 58 4z m-68 -73 l24 -26 -89 -89 c-79 -80 -145 -123 -161 -107
-17 16 19 73 99 155 50 50 94 92 97 92 4 0 17 -11 30 -25z"/>
</g>
</svg>
