<?xml version="1.0" standalone="no"?>
<!DOCTYPE svg PUBLIC "-//W3C//DTD SVG 20010904//EN"
 "http://www.w3.org/TR/2001/REC-SVG-20010904/DTD/svg10.dtd">
<svg version="1.0" xmlns="http://www.w3.org/2000/svg"
 width="48.000000pt" height="48.000000pt" viewBox="0 0 48.000000 48.000000"
 preserveAspectRatio="xMidYMid meet">

<g transform="translate(0.000000,48.000000) scale(0.100000,-0.100000)"
fill="#000000" stroke="none">
<path d="M148 371 c-41 -33 -78 -67 -82 -76 -11 -31 -7 -220 6 -233 17 -17
319 -17 336 0 15 15 17 211 2 238 -15 27 -149 130 -170 130 -9 0 -51 -27 -92
-59z m170 -27 l72 -55 0 -105 0 -104 -150 0 -150 0 0 104 0 105 72 55 c39 31
74 56 78 56 4 0 39 -25 78 -56z"/>
<path d="M130 185 l0 -55 45 0 45 0 0 55 0 55 -45 0 -45 0 0 -55z m60 0 c0
-16 -6 -25 -15 -25 -9 0 -15 9 -15 25 0 16 6 25 15 25 9 0 15 -9 15 -25z"/>
<path d="M260 185 l0 -55 45 0 45 0 0 55 0 55 -45 0 -45 0 0 -55z m60 0 c0
-16 -6 -25 -15 -25 -9 0 -15 9 -15 25 0 16 6 25 15 25 9 0 15 -9 15 -25z"/>
</g>
</svg>
