<?xml version="1.0" standalone="no"?>
<!DOCTYPE svg PUBLIC "-//W3C//DTD SVG 20010904//EN"
 "http://www.w3.org/TR/2001/REC-SVG-20010904/DTD/svg10.dtd">
<svg version="1.0" xmlns="http://www.w3.org/2000/svg"
 width="48.000000pt" height="48.000000pt" viewBox="0 0 48.000000 48.000000"
 preserveAspectRatio="xMidYMid meet">

<g transform="translate(0.000000,48.000000) scale(0.100000,-0.100000)"
fill="#000000" stroke="none">
<path d="M277 382 c-37 -38 -47 -62 -25 -62 6 0 22 10 35 22 l23 21 0 -156 c0
-133 2 -157 15 -157 13 0 15 24 15 157 l0 156 23 -21 c26 -25 47 -29 47 -9 0
15 -71 87 -86 87 -5 0 -27 -17 -47 -38z"/>
<path d="M132 388 c-5 -7 -18 -36 -28 -65 -18 -52 -14 -77 8 -55 7 7 21 12 33
12 12 0 26 -5 33 -12 22 -22 26 3 7 57 -21 63 -37 82 -53 63z m22 -63 c3 -9 0
-15 -9 -15 -9 0 -12 6 -9 15 4 8 7 15 9 15 2 0 5 -7 9 -15z"/>
<path d="M100 196 c0 -8 11 -16 25 -18 l25 -3 -25 -37 c-37 -55 -34 -68 20
-68 32 0 45 4 45 14 0 8 -11 16 -25 18 l-25 3 25 37 c37 55 34 68 -20 68 -32
0 -45 -4 -45 -14z"/>
</g>
</svg>
