<svg width="13" height="14" fill="none" xmlns="http://www.w3.org/2000/svg"><g fill="gray"><path d="M8.2 4.99H6.87v5.52H8.2V4.99ZM5.46 4.99H4.13v5.52h1.33V4.99Z"/><path d="M12.48 2.17a.64.64 0 0 0-.46-.6.62.62 0 0 0-.19-.05H8.3a2.14 2.14 0 0 0-4.1 0H.64a.64.64 0 0 0-.17.02H.45a.64.64 0 0 0 .1 1.25l.7 9.74A1.51 1.51 0 0 0 2.68 14h7.1a1.51 1.51 0 0 0 1.44-1.47l.7-9.73a.64.64 0 0 0 .56-.63ZM6.24 1.2a.94.94 0 0 1 .69.3H5.55a.93.93 0 0 1 .69-.3ZM9.79 12.8h-7.1c-.09 0-.22-.13-.23-.34l-.7-9.64h8.96l-.7 9.64c-.02.2-.15.34-.23.34Z"/></g></svg>