<?xml version="1.0" standalone="no"?>
<!DOCTYPE svg PUBLIC "-//W3C//DTD SVG 20010904//EN"
 "http://www.w3.org/TR/2001/REC-SVG-20010904/DTD/svg10.dtd">
<svg version="1.0" xmlns="http://www.w3.org/2000/svg"
 width="48.000000pt" height="48.000000pt" viewBox="0 0 48.000000 48.000000"
 preserveAspectRatio="xMidYMid meet">

<g transform="translate(0.000000,48.000000) scale(0.100000,-0.100000)"
fill="#000000" stroke="none">
<path d="M162 408 c-7 -7 -12 -20 -12 -30 0 -15 -8 -18 -43 -18 -24 0 -48 -5
-55 -12 -17 -17 -17 -269 0 -286 17 -17 359 -17 376 0 17 17 17 269 0 286 -7
7 -31 12 -55 12 -35 0 -43 3 -43 18 0 32 -22 42 -90 42 -38 0 -71 -5 -78 -12z
m138 -33 c0 -12 -13 -15 -60 -15 -47 0 -60 3 -60 15 0 12 13 15 60 15 47 0 60
-3 60 -15z m110 -115 l0 -70 -70 0 c-40 0 -70 4 -70 10 0 6 -13 10 -30 10 -16
0 -30 -4 -30 -10 0 -6 -30 -10 -70 -10 l-70 0 0 70 0 70 170 0 170 0 0 -70z
m-200 -110 c0 -5 14 -10 30 -10 17 0 30 5 30 10 0 6 30 10 70 10 l70 0 0 -40
0 -40 -170 0 -170 0 0 40 0 40 70 0 c40 0 70 -4 70 -10z"/>
</g>
</svg>
